# xmcd
#
# Track frame offsets:
#	150
#	13431
#	26959
#	43484
#	54989
#	68421
#	84225
#	97842
#	109047
#	124741
#	143533
#	155624
#	172158
#	185193
#	200646
#	212272
#	224404
#	241828
#	260014
#	277882
#	296126
#	311672
#	327506
#	345465
#
# Disc length: 4788 seconds
#
# Revision: 2
# Processed by: cddbd v1.5.2PL0 Copyright (c) Steve Scherf et al.
# Submitted via: audiograbber 1.83.01
#
DISCID=6f12b218
DTITLE=The Oak Ridge Boys - The Definitive Collection
DYEAR=2006
DGENRE=Country
TTITLE0=Y'All Come Back Saloon
TTITLE1=You're The One
TTITLE2=I'll Be True to You
TTITLE3=Cryin' Again
TTITLE4=Come On In (aka Baby Take Your Coat Off)
TTITLE5=Sail Away
TTITLE6=Leaving Louisiana In The Broad Daylight
TTITLE7=Trying To Love Two Women
TTITLE8=Heart Of Mine
TTITLE9=Beautiful You
TTITLE10=Elvira
TTITLE11=(I'm Settin') Fancy Free
TTITLE12=Bobbie Sue
TTITLE13=I Wish You Could've Turned My Head (And Left My Heart Alone)
TTITLE14=Thank God For Kids
TTITLE15=American Made
TTITLE16=Love Song
TTITLE17=I Guess It Never Hurts To Hurt Sometimes
TTITLE18=Everyday
TTITLE19=Make My Life With You
TTITLE20=Little Things
TTITLE21=Touch A Hand, Make A Friend
TTITLE22=It Takes A Little Rain (To Make Love Grow)
TTITLE23=This Crazy Love
EXTD=
EXTT0=
EXTT1=
EXTT2=
EXTT3=
EXTT4=
EXTT5=
EXTT6=
EXTT7=
EXTT8=
EXTT9=
EXTT10=
EXTT11=
EXTT12=
EXTT13=
EXTT14=
EXTT15=
EXTT16=
EXTT17=
EXTT18=
EXTT19=
EXTT20=
EXTT21=
EXTT22=
EXTT23=
PLAYORDER=
